<?xml version="1.0" encoding="UTF-8" standalone="no"?>
<svg width="18px" height="17px" viewBox="0 0 18 17" version="1.1" xmlns="http://www.w3.org/2000/svg" xmlns:xlink="http://www.w3.org/1999/xlink">
    <!-- Generator: Sketch 48.1 (47250) - http://www.bohemiancoding.com/sketch -->
    <title>Path Copy 2</title>
    <desc>Created with Sketch.</desc>
    <defs></defs>
    <g id="Home-Tile-Copy-4" stroke="none" stroke-width="1" fill="none" fill-rule="evenodd" transform="translate(-183.000000, -163.000000)">
        <g id="Group" stroke="#4A4A4A">
            <g id="Group-6">
                <g id="Group-3" transform="translate(25.000000, 152.000000)">
                    <path d="M159.958587,18.3833302 C159.958587,18.3833302 161.939665,18.9691807 166.792067,18.9691807 C171.644468,18.9691807 173.625546,18.3833302 173.625546,18.3833302 M174.201747,24.8174488 C174.464621,24.8174488 174.727753,24.7224664 174.928442,24.5327446 C175.129131,24.3427799 175.229604,24.094271 175.229604,23.8457621 L175.229604,19.9583287 C175.229604,19.2485116 174.732635,18.6511672 174.051937,18.4621741 L173.141237,14.5862595 C172.970613,13.7695569 172.264597,12.1096138 169.777959,12.1096138 L164.298051,12.1096138 C161.745767,12.1096138 161.017132,13.7695569 160.845994,14.5862595 L159.962331,18.4621741 C159.281376,18.6511672 158.783893,19.2485116 158.783893,19.9583287 L158.783893,23.8457621 C158.783893,24.094271 158.884366,24.3427799 159.085056,24.5327446 C159.285745,24.7224664 159.548876,24.8174488 159.81175,24.8174488 L173.944783,24.8174488 L174.201747,24.8174488 Z M159.958587,24.6570466 L159.958587,26.2891177 C159.958587,26.8257316 160.41881,27.2608044 160.986444,27.2608044 L162.014301,27.2608044 C162.581935,27.2608044 163.042158,26.8257316 163.042158,26.2891177 L163.042158,24.6570466 M170.530829,24.6570466 L170.530829,26.2941039 C170.530829,26.8307179 170.991052,27.2657906 171.558686,27.2657906 L172.586543,27.2657906 C173.154177,27.2657906 173.6144,26.8307179 173.6144,26.2941039 L173.6144,24.6570466 M161.7289,20.6646816 C161.075429,20.6646816 160.545934,21.1790733 160.545934,21.8133902 C160.545934,22.4479369 161.075429,22.9620989 161.7289,22.9620989 C162.382134,22.9620989 162.911866,22.4479369 162.911866,21.8133902 C162.911866,21.1790733 162.382134,20.6646816 161.7289,20.6646816 L161.7289,20.6646816 Z M172.301142,20.6646816 C171.647672,20.6646816 171.118176,21.1790733 171.118176,21.8133902 C171.118176,22.4479369 171.647672,22.9620989 172.301142,22.9620989 C172.954376,22.9620989 173.484108,22.4479369 173.484108,21.8133902 C173.484108,21.1790733 172.954376,20.6646816 172.301142,20.6646816 L172.301142,20.6646816 Z" id="Path-Copy-2"></path>
                </g>
            </g>
        </g>
    </g>
</svg>