<?xml version="1.0" encoding="UTF-8" standalone="no"?>
<svg width="19px" height="17px" viewBox="0 0 19 17" version="1.1" xmlns="http://www.w3.org/2000/svg" xmlns:xlink="http://www.w3.org/1999/xlink">
    <!-- Generator: Sketch 48.1 (47250) - http://www.bohemiancoding.com/sketch -->
    <title>Line</title>
    <desc>Created with Sketch.</desc>
    <defs></defs>
    <g id="Home-Tile-Copy-4" stroke="none" stroke-width="1" fill="none" fill-rule="evenodd" transform="translate(-52.000000, -164.000000)" stroke-linecap="round" stroke-linejoin="round">
        <g id="Group" stroke="#4A4A4A">
            <g id="Group-6">
                <g id="Group-3" transform="translate(25.000000, 152.000000)">
                    <path d="M29.4589884,26.6850742 L29.4589884,28.1783954 M43.6545814,26.6850742 L43.6545814,28.1783954 M44.8375475,23.2389483 L44.8375473,25.5899446 C44.8375473,26.1955269 44.3418937,26.6864483 43.7380734,26.6864483 L29.3754961,26.6864483 C28.7682735,26.6864483 28.2760223,26.1991263 28.2760223,25.5899446 L28.2760225,23.2389483 M42.4064193,15.2864452 C42.6206396,15.8523838 42.2898117,16.3111676 41.6652192,16.3111676 L31.4483252,16.3111676 C30.8247514,16.3111676 30.4927052,15.8529111 30.7071251,15.2864452 L30.979527,14.5667994 C31.3038415,13.7100083 32.3332963,13.0154419 33.2710413,13.0154419 L39.8425031,13.0154419 C40.783757,13.0154419 41.8113579,13.7143805 42.1340173,14.5667994 L42.4064193,15.2864452 L42.4064193,15.2864452 Z M42.3292205,16.6516521 L44.7637731,22.3027817 C44.986514,22.8198122 44.688549,23.2389483 44.0898969,23.2389483 L29.0243266,23.2389483 C28.4294142,23.2389483 28.1271915,22.8190601 28.348573,22.3027817 L30.7717923,16.6516521" id="Line"></path>
                </g>
            </g>
        </g>
    </g>
</svg>