<?xml version="1.0" encoding="UTF-8" standalone="no"?>
<svg width="16px" height="17px" viewBox="0 0 16 17" version="1.1" xmlns="http://www.w3.org/2000/svg" xmlns:xlink="http://www.w3.org/1999/xlink">
    <!-- Generator: Sketch 48.1 (47250) - http://www.bohemiancoding.com/sketch -->
    <title>Path</title>
    <desc>Created with Sketch.</desc>
    <defs></defs>
    <g id="Home-Tile-Copy-4" stroke="none" stroke-width="1" fill="none" fill-rule="evenodd" transform="translate(-113.000000, -163.000000)" stroke-linecap="round" stroke-linejoin="round">
        <g id="Group" stroke="#4A4A4A">
            <g id="Group-6">
                <g id="Group-3" transform="translate(25.000000, 152.000000)">
                    <path d="M97.8584029,25.954332 L94.2196374,25.954332 C91.2299339,25.954332 88.7838129,23.980077 88.7838129,21.0769522 L90.6688556,21.0769522 L103.294227,21.0769522 C103.294227,23.980077 100.848106,25.954332 97.8584029,25.954332 Z M96.1607202,13.27158 C96.658539,12.3873008 97.6299569,12.1096138 98.8086491,12.1096138 L98.9699379,12.1096138 C100.631938,12.1096138 101.992011,13.3236918 101.992011,14.8072881 L101.992011,21.0769522 M93.3296462,15.963346 C93.3296462,14.5373544 94.5204166,13.3810675 95.9889349,13.3810675 C97.4574532,13.3810675 98.6482236,14.5373544 98.6482236,15.963346 L93.3296462,15.963346 Z M100.224717,25.6833664 L101.186354,27.2396815 M91.5742772,25.6833664 L90.6126402,27.2396815" id="Path"></path>
                </g>
            </g>
        </g>
    </g>
</svg>